<svg width="128" height="128" viewBox="0 0 128 128" fill="none" xmlns="http://www.w3.org/2000/svg">
  <circle cx="64" cy="64" r="64" style="fill: var(--color-high)" />
  <circle cx="63.5" cy="63.5" r="22.5" style="fill: var(--background-color)" />
  <path style="fill: var(--color-primary-50)"
    d="M63.5 44C59.6433 44 55.8731 45.1437 52.6664 47.2863C49.4596 49.429 46.9603 52.4745 45.4844 56.0377C44.0084 59.6008 43.6223 63.5216 44.3747 67.3043C45.1271 71.0869 46.9843 74.5614 49.7114 77.2886C52.4385 80.0157 55.9131 81.8729 59.6957 82.6253C63.4784 83.3777 67.3992 82.9915 70.9623 81.5156C74.5255 80.0397 77.571 77.5404 79.7137 74.3336C81.8563 71.1269 83 67.3567 83 63.5C82.9971 58.3292 80.9417 53.3709 77.2854 49.7146C73.6291 46.0583 68.6708 44.0029 63.5 44V44ZM63.5 66.2576C62.9541 66.2597 62.4199 66.0999 61.965 65.7982C61.5101 65.4965 61.1549 65.0666 60.9445 64.5629C60.7342 64.0592 60.678 63.5044 60.7831 62.9688C60.8883 62.4331 61.1501 61.9407 61.5353 61.554C61.9205 61.1672 62.4118 60.9035 62.947 60.7962C63.4823 60.6889 64.0373 60.7429 64.5418 60.9513C65.0463 61.1597 65.4776 61.5131 65.7811 61.9668C66.0846 62.4206 66.2466 62.9541 66.2466 63.5C66.2481 63.8616 66.1781 64.2199 66.0407 64.5544C65.9033 64.8889 65.7012 65.193 65.446 65.4492C65.1909 65.7054 64.8876 65.9087 64.5536 66.0475C64.2197 66.1862 63.8616 66.2576 63.5 66.2576Z" />
</svg>