<svg width="128" height="128" viewBox="0 0 128 128" fill="none" xmlns="http://www.w3.org/2000/svg">
<g clip-path="url(#clip0_9_2)">
<path style="fill: var(--color-high)" d="M28.7213 11.2017C39.1638 4.22421 51.4409 0.5 64 0.5C80.8412 0.5 96.9927 7.19016 108.901 19.0987C120.81 31.0073 127.5 47.1587 127.5 64C127.5 76.5591 123.776 88.8362 116.798 99.2787C109.821 109.721 99.9035 117.86 88.3004 122.666C76.6973 127.473 63.9296 128.73 51.6118 126.28C39.294 123.83 27.9793 117.782 19.0987 108.901C10.2181 100.021 4.17029 88.706 1.72013 76.3882C-0.730028 64.0704 0.527483 51.3027 5.33365 39.6996C10.1398 28.0965 18.2788 18.1791 28.7213 11.2017ZM51.2774 83.0406C55.0433 85.5569 59.4708 86.9 64 86.9C70.0734 86.9 75.8982 84.4873 80.1927 80.1927C84.4873 75.8982 86.9 70.0734 86.9 64C86.9 59.4708 85.5569 55.0433 83.0406 51.2774C80.5244 47.5116 76.9479 44.5764 72.7635 42.8432C68.579 41.1099 63.9746 40.6564 59.5324 41.54C55.0903 42.4236 51.0099 44.6046 47.8072 47.8073C44.6046 51.0099 42.4236 55.0903 41.54 59.5324C40.6564 63.9746 41.1099 68.579 42.8432 72.7635C44.5764 76.9479 47.5116 80.5244 51.2774 83.0406Z" />
<path style="fill: var(--color-primary-50)" d="M64 44.992C60.2406 44.992 56.5656 46.1068 53.4397 48.1954C50.3139 50.2841 47.8776 53.2527 46.4389 56.726C45.0002 60.1992 44.6238 64.0211 45.3572 67.7083C46.0907 71.3955 47.901 74.7824 50.5593 77.4407C53.2176 80.099 56.6045 81.9093 60.2917 82.6428C63.9789 83.3762 67.8008 82.9998 71.274 81.5611C74.7473 80.1224 77.716 77.6861 79.8046 74.5603C81.8932 71.4344 83.008 67.7594 83.008 64C83.0052 58.9596 81.0016 54.1265 77.4376 50.5624C73.8735 46.9984 69.0404 44.9948 64 44.992ZM64 66.688C63.4679 66.6901 62.9472 66.5343 62.5037 66.2402C62.0603 65.9461 61.7141 65.527 61.509 65.0361C61.3039 64.5451 61.2492 64.0043 61.3517 63.4822C61.4542 62.96 61.7094 62.4801 62.0849 62.1031C62.4604 61.7261 62.9393 61.469 63.461 61.3645C63.9827 61.2599 64.5237 61.3125 65.0155 61.5156C65.5073 61.7187 65.9277 62.0633 66.2236 62.5055C66.5194 62.9478 66.6773 63.4679 66.6773 64C66.6787 64.3525 66.6105 64.7018 66.4766 65.0279C66.3427 65.3539 66.1457 65.6503 65.8969 65.9001C65.6482 66.1498 65.3526 66.348 65.027 66.4832C64.7015 66.6184 64.3525 66.688 64 66.688Z" />
<path style="fill: var(--background-color)" d="M64 41.6C59.5697 41.6 55.2389 42.9137 51.5552 45.3751C47.8716 47.8364 45.0005 51.3348 43.3051 55.4279C41.6097 59.521 41.1661 64.0249 42.0304 68.37C42.8947 72.7152 45.0281 76.7065 48.1608 79.8392C51.2935 82.9719 55.2848 85.1053 59.63 85.9696C63.9752 86.8339 68.479 86.3903 72.5721 84.6949C76.6652 82.9995 80.1636 80.1284 82.6249 76.4448C85.0863 72.7611 86.4 68.4303 86.4 64C86.4 58.0592 84.04 52.3616 79.8392 48.1608C75.6384 43.96 69.9408 41.6 64 41.6ZM64 83.008C60.2406 83.008 56.5656 81.8932 53.4397 79.8046C50.3139 77.716 47.8776 74.7473 46.4389 71.2741C45.0002 67.8008 44.6238 63.9789 45.3572 60.2917C46.0907 56.6045 47.901 53.2176 50.5593 50.5593C53.2176 47.901 56.6045 46.0907 60.2917 45.3572C63.9789 44.6238 67.8008 45.0002 71.274 46.4389C74.7473 47.8776 77.716 50.3139 79.8046 53.4397C81.8932 56.5656 83.008 60.2406 83.008 64C83.008 69.0412 81.0054 73.876 77.4407 77.4407C73.876 81.0054 69.0412 83.008 64 83.008Z" />
</g>
</svg>
